{"asset":{"version":"2.0","generator":"Blockbench 4.11.2 glTF exporter"},"scenes":[{"nodes":[6],"name":"blockbench_export"}],"scene":0,"nodes":[{"name":"cube","mesh":0},{"name":"bone","children":[0]},{"translation":[-0.375,0,0.03125],"name":"cube","mesh":1},{"name":"bone2","children":[2]},{"translation":[0.25,0,0.03125],"name":"cube","mesh":2},{"name":"bone3","children":[4]},{"children":[1,3,5]}],"bufferViews":[{"buffer":0,"byteOffset":0,"byteLength":288,"target":34962,"byteStride":12},{"buffer":0,"byteOffset":288,"byteLength":288,"target":34962,"byteStride":12},{"buffer":0,"byteOffset":576,"byteLength":192,"target":34962,"byteStride":8},{"buffer":0,"byteOffset":768,"byteLength":72,"target":34963},{"buffer":0,"byteOffset":840,"byteLength":288,"target":34962,"byteStride":12},{"buffer":0,"byteOffset":1128,"byteLength":288,"target":34962,"byteStride":12},{"buffer":0,"byteOffset":1416,"byteLength":192,"target":34962,"byteStride":8},{"buffer":0,"byteOffset":1608,"byteLength":72,"target":34963},{"buffer":0,"byteOffset":1680,"byteLength":288,"target":34962,"byteStride":12},{"buffer":0,"byteOffset":1968,"byteLength":288,"target":34962,"byteStride":12},{"buffer":0,"byteOffset":2256,"byteLength":192,"target":34962,"byteStride":8},{"buffer":0,"byteOffset":2448,"byteLength":72,"target":34963},{"buffer":0,"byteOffset":2520,"byteLength":12},{"buffer":0,"byteOffset":2532,"byteLength":36},{"buffer":0,"byteOffset":2568,"byteLength":12},{"buffer":0,"byteOffset":2580,"byteLength":36},{"buffer":0,"byteOffset":2616,"byteLength":4},{"buffer":0,"byteOffset":2620,"byteLength":16},{"buffer":0,"byteOffset":2636,"byteLength":4},{"buffer":0,"byteOffset":2640,"byteLength":12},{"buffer":0,"byteOffset":2652,"byteLength":12},{"buffer":0,"byteOffset":2664,"byteLength":36}],"buffers":[{"byteLength":2700,"uri":"data:application/octet-stream;base64,"}],"accessors":[{"bufferView":0,"componentType":5126,"count":24,"max":[0.1875,0.375,0.1875],"min":[-0.1875,0,-0.1875],"type":"VEC3"},{"bufferView":1,"componentType":5126,"count":24,"max":[1,1,1],"min":[-1,-1,-1],"type":"VEC3"},{"bufferView":2,"componentType":5126,"count":24,"max":[0.74951171875,0.37451171875],"min":[0.00048828125,0.00048828125],"type":"VEC2"},{"bufferView":3,"componentType":5123,"count":36,"max":[23],"min":[0],"type":"SCALAR"},{"bufferView":4,"componentType":5126,"count":24,"max":[0.1875,0.25,0.125],"min":[-0.0625,0,-0.1875],"type":"VEC3"},{"bufferView":5,"componentType":5126,"count":24,"max":[1,1,1],"min":[-1,-1,-1],"type":"VEC3"},{"bufferView":6,"componentType":5126,"count":24,"max":[0.40576171875,0.18701171875],"min":[-0.15576171875,-0.09326171875],"type":"VEC2"},{"bufferView":7,"componentType":5123,"count":36,"max":[23],"min":[0],"type":"SCALAR"},{"bufferView":8,"componentType":5126,"count":24,"max":[0.1875,0.25,0.125],"min":[-0.0625,0,-0.1875],"type":"VEC3"},{"bufferView":9,"componentType":5126,"count":24,"max":[1,1,1],"min":[-1,-1,-1],"type":"VEC3"},{"bufferView":10,"componentType":5126,"count":24,"max":[0.40576171875,0.18701171875],"min":[-0.15576171875,-0.09326171875],"type":"VEC2"},{"bufferView":11,"componentType":5123,"count":36,"max":[23],"min":[0],"type":"SCALAR"},{"bufferView":12,"componentType":5126,"count":3,"max":[0.4166666567325592],"min":[0],"type":"SCALAR"},{"bufferView":13,"componentType":5126,"count":3,"max":[1.5,1.5,1.5],"min":[1,1,1],"type":"VEC3"},{"bufferView":14,"componentType":5126,"count":3,"max":[0.4166666567325592],"min":[0],"type":"SCALAR"},{"bufferView":15,"componentType":5126,"count":3,"max":[1.5,1.5,1.5],"min":[1,1,1],"type":"VEC3"},{"bufferView":16,"componentType":5126,"count":1,"max":[0],"min":[0],"type":"SCALAR"},{"bufferView":17,"componentType":5126,"count":1,"max":[0,0,0,1],"min":[0,0,0,1],"type":"VEC4"},{"bufferView":18,"componentType":5126,"count":1,"max":[0],"min":[0],"type":"SCALAR"},{"bufferView":19,"componentType":5126,"count":1,"max":[0,0,0],"min":[0,0,0],"type":"VEC3"},{"bufferView":20,"componentType":5126,"count":3,"max":[0.4166666567325592],"min":[0],"type":"SCALAR"},{"bufferView":21,"componentType":5126,"count":3,"max":[1.5,1.5,1.5],"min":[1,1,1],"type":"VEC3"}],"materials":[{"pbrMetallicRoughness":{"metallicFactor":0,"roughnessFactor":1},"alphaMode":"MASK","alphaCutoff":0.05,"doubleSided":true}],"meshes":[{"primitives":[{"mode":4,"attributes":{"POSITION":0,"NORMAL":1,"TEXCOORD_0":2},"indices":3,"material":0}]},{"primitives":[{"mode":4,"attributes":{"POSITION":4,"NORMAL":5,"TEXCOORD_0":6},"indices":7,"material":0}]},{"primitives":[{"mode":4,"attributes":{"POSITION":8,"NORMAL":9,"TEXCOORD_0":10},"indices":11,"material":0}]}],"animations":[{"name":"Bounce","samplers":[{"input":12,"output":13,"interpolation":"LINEAR"},{"input":14,"output":15,"interpolation":"LINEAR"},{"input":16,"output":17,"interpolation":"LINEAR"},{"input":18,"output":19,"interpolation":"LINEAR"},{"input":20,"output":21,"interpolation":"LINEAR"}],"channels":[{"sampler":0,"target":{"node":1,"path":"scale"}},{"sampler":1,"target":{"node":3,"path":"scale"}},{"sampler":2,"target":{"node":5,"path":"rotation"}},{"sampler":3,"target":{"node":5,"path":"translation"}},{"sampler":4,"target":{"node":5,"path":"scale"}}]}]}