{"asset":{"version":"2.0","generator":"Blockbench 4.11.2 glTF exporter"},"scenes":[{"nodes":[1,3,5],"name":"blockbench_export"}],"scene":0,"nodes":[{"name":"bone"},{"name":"bone","mesh":0,"children":[0],"skin":0},{"name":"bone3"},{"name":"bone3","mesh":1,"children":[2],"skin":1},{"name":"bone2"},{"name":"bone2","mesh":2,"children":[4],"skin":2}],"bufferViews":[{"buffer":0,"byteOffset":0,"byteLength":288,"target":34962,"byteStride":12},{"buffer":0,"byteOffset":288,"byteLength":288,"target":34962,"byteStride":12},{"buffer":0,"byteOffset":576,"byteLength":192,"target":34962,"byteStride":8},{"buffer":0,"byteOffset":768,"byteLength":192,"target":34962,"byteStride":8},{"buffer":0,"byteOffset":960,"byteLength":384,"target":34962,"byteStride":16},{"buffer":0,"byteOffset":1344,"byteLength":72,"target":34963},{"buffer":0,"byteOffset":1416,"byteLength":288,"target":34962,"byteStride":12},{"buffer":0,"byteOffset":1704,"byteLength":288,"target":34962,"byteStride":12},{"buffer":0,"byteOffset":1992,"byteLength":192,"target":34962,"byteStride":8},{"buffer":0,"byteOffset":2184,"byteLength":192,"target":34962,"byteStride":8},{"buffer":0,"byteOffset":2376,"byteLength":384,"target":34962,"byteStride":16},{"buffer":0,"byteOffset":2760,"byteLength":72,"target":34963},{"buffer":0,"byteOffset":2832,"byteLength":288,"target":34962,"byteStride":12},{"buffer":0,"byteOffset":3120,"byteLength":288,"target":34962,"byteStride":12},{"buffer":0,"byteOffset":3408,"byteLength":192,"target":34962,"byteStride":8},{"buffer":0,"byteOffset":3600,"byteLength":192,"target":34962,"byteStride":8},{"buffer":0,"byteOffset":3792,"byteLength":384,"target":34962,"byteStride":16},{"buffer":0,"byteOffset":4176,"byteLength":72,"target":34963},{"buffer":0,"byteOffset":4248,"byteLength":64},{"buffer":0,"byteOffset":4312,"byteLength":64},{"buffer":0,"byteOffset":4376,"byteLength":64},{"buffer":0,"byteOffset":4440,"byteLength":12},{"buffer":0,"byteOffset":4452,"byteLength":36},{"buffer":0,"byteOffset":4488,"byteLength":12},{"buffer":0,"byteOffset":4500,"byteLength":36},{"buffer":0,"byteOffset":4536,"byteLength":4},{"buffer":0,"byteOffset":4540,"byteLength":16},{"buffer":0,"byteOffset":4556,"byteLength":4},{"buffer":0,"byteOffset":4560,"byteLength":12},{"buffer":0,"byteOffset":4572,"byteLength":12},{"buffer":0,"byteOffset":4584,"byteLength":36}],"buffers":[{"byteLength":4620,"uri":"data:application/octet-stream;base64,"}],"accessors":[{"bufferView":0,"componentType":5126,"count":24,"max":[0.125,0.375,0.390625],"min":[-0.25,0,0.015625],"type":"VEC3"},{"bufferView":1,"componentType":5126,"count":24,"max":[1,1,1],"min":[-1,-1,-1],"type":"VEC3"},{"bufferView":2,"componentType":5126,"count":24,"max":[0.74951171875,0.37451171875],"min":[0.00048828125,0.00048828125],"type":"VEC2"},{"bufferView":3,"componentType":5123,"count":24,"max":[0,0,0,0],"min":[0,0,0,0],"type":"VEC4"},{"bufferView":4,"componentType":5126,"count":24,"max":[0,1,0,0],"min":[0,1,0,0],"type":"VEC4"},{"bufferView":5,"componentType":5123,"count":36,"max":[23],"min":[0],"type":"SCALAR"},{"bufferView":6,"componentType":5126,"count":24,"max":[0.375,0.3125,0.015625],"min":[0,0,-0.359375],"type":"VEC3"},{"bufferView":7,"componentType":5126,"count":24,"max":[1,1,1],"min":[-1,-1,-1],"type":"VEC3"},{"bufferView":8,"componentType":5126,"count":24,"max":[0.49951171875,0.21826171875],"min":[-0.24951171875,-0.12451171875],"type":"VEC2"},{"bufferView":9,"componentType":5123,"count":24,"max":[0,0,0,0],"min":[0,0,0,0],"type":"VEC4"},{"bufferView":10,"componentType":5126,"count":24,"max":[0,1,0,0],"min":[0,1,0,0],"type":"VEC4"},{"bufferView":11,"componentType":5123,"count":36,"max":[23],"min":[0],"type":"SCALAR"},{"bufferView":12,"componentType":5126,"count":24,"max":[0,0.4375,0.015625],"min":[-0.375,0,-0.421875],"type":"VEC3"},{"bufferView":13,"componentType":5126,"count":24,"max":[1,1,1],"min":[-1,-1,-1],"type":"VEC3"},{"bufferView":14,"componentType":5126,"count":24,"max":[0.59326171875,0.28076171875],"min":[-0.21826171875,-0.15576171875],"type":"VEC2"},{"bufferView":15,"componentType":5123,"count":24,"max":[0,0,0,0],"min":[0,0,0,0],"type":"VEC4"},{"bufferView":16,"componentType":5126,"count":24,"max":[0,1,0,0],"min":[0,1,0,0],"type":"VEC4"},{"bufferView":17,"componentType":5123,"count":36,"max":[23],"min":[0],"type":"SCALAR"},{"bufferView":18,"componentType":5126,"count":1,"max":[1,0,0,0,0,1,0,0,0,0,1,0,0,0,0,1],"min":[1,0,0,0,0,1,0,0,0,0,1,0,0,0,0,1],"type":"MAT4"},{"bufferView":19,"componentType":5126,"count":1,"max":[1,0,0,0,0,1,0,0,0,0,1,0,0,0,0,1],"min":[1,0,0,0,0,1,0,0,0,0,1,0,0,0,0,1],"type":"MAT4"},{"bufferView":20,"componentType":5126,"count":1,"max":[1,0,0,0,0,1,0,0,0,0,1,0,0,0,0,1],"min":[1,0,0,0,0,1,0,0,0,0,1,0,0,0,0,1],"type":"MAT4"},{"bufferView":21,"componentType":5126,"count":3,"max":[0.4166666567325592],"min":[0],"type":"SCALAR"},{"bufferView":22,"componentType":5126,"count":3,"max":[1.5,1.5,1.5],"min":[1,1,1],"type":"VEC3"},{"bufferView":23,"componentType":5126,"count":3,"max":[0.4166666567325592],"min":[0],"type":"SCALAR"},{"bufferView":24,"componentType":5126,"count":3,"max":[1.5,1.5,1.5],"min":[1,1,1],"type":"VEC3"},{"bufferView":25,"componentType":5126,"count":1,"max":[0],"min":[0],"type":"SCALAR"},{"bufferView":26,"componentType":5126,"count":1,"max":[0,0,0,1],"min":[0,0,0,1],"type":"VEC4"},{"bufferView":27,"componentType":5126,"count":1,"max":[0],"min":[0],"type":"SCALAR"},{"bufferView":28,"componentType":5126,"count":1,"max":[0,0,0],"min":[0,0,0],"type":"VEC3"},{"bufferView":29,"componentType":5126,"count":3,"max":[0.4166666567325592],"min":[0],"type":"SCALAR"},{"bufferView":30,"componentType":5126,"count":3,"max":[1.5,1.5,1.5],"min":[1,1,1],"type":"VEC3"}],"materials":[{"pbrMetallicRoughness":{"metallicFactor":0,"roughnessFactor":1},"alphaMode":"MASK","alphaCutoff":0.05,"doubleSided":true}],"meshes":[{"primitives":[{"mode":4,"attributes":{"POSITION":0,"NORMAL":1,"TEXCOORD_0":2,"JOINTS_0":3,"WEIGHTS_0":4},"indices":5,"material":0}]},{"primitives":[{"mode":4,"attributes":{"POSITION":6,"NORMAL":7,"TEXCOORD_0":8,"JOINTS_0":9,"WEIGHTS_0":10},"indices":11,"material":0}]},{"primitives":[{"mode":4,"attributes":{"POSITION":12,"NORMAL":13,"TEXCOORD_0":14,"JOINTS_0":15,"WEIGHTS_0":16},"indices":17,"material":0}]}],"skins":[{"inverseBindMatrices":18,"joints":[0],"skeleton":0},{"inverseBindMatrices":19,"joints":[2],"skeleton":2},{"inverseBindMatrices":20,"joints":[4],"skeleton":4}],"animations":[{"name":"Bounce","samplers":[{"input":21,"output":22,"interpolation":"LINEAR"},{"input":23,"output":24,"interpolation":"LINEAR"},{"input":25,"output":26,"interpolation":"LINEAR"},{"input":27,"output":28,"interpolation":"LINEAR"},{"input":29,"output":30,"interpolation":"LINEAR"}],"channels":[{"sampler":0,"target":{"node":0,"path":"scale"}},{"sampler":1,"target":{"node":4,"path":"scale"}},{"sampler":2,"target":{"node":2,"path":"rotation"}},{"sampler":3,"target":{"node":2,"path":"translation"}},{"sampler":4,"target":{"node":2,"path":"scale"}}]}]}